<?xml version="1.0" encoding="UTF-8" standalone="no"?>
<!-- Created with Inkscape (http://www.inkscape.org/) -->

<svg
   xmlns:dc="http://purl.org/dc/elements/1.1/"
   xmlns:cc="http://creativecommons.org/ns#"
   xmlns:rdf="http://www.w3.org/1999/02/22-rdf-syntax-ns#"
   xmlns:svg="http://www.w3.org/2000/svg"
   xmlns="http://www.w3.org/2000/svg"
   xmlns:sodipodi="http://sodipodi.sourceforge.net/DTD/sodipodi-0.dtd"
   xmlns:inkscape="http://www.inkscape.org/namespaces/inkscape"
   width="149.94228mm"
   height="199.98915mm"
   viewBox="0 0 149.94227 199.98915"
   version="1.1"
   id="svg8"
   inkscape:export-filename="C:\Users\LNDNSDT\Desktop\logohoantruyen1.png"
   inkscape:export-xdpi="100.75336"
   inkscape:export-ydpi="100.75336"
   inkscape:version="0.92.1 r15371"
   sodipodi:docname="cutefish.svg">
  <sodipodi:namedview
     id="base"
     pagecolor="#ffffff"
     bordercolor="#666666"
     borderopacity="1.0"
     inkscape:pageopacity="0.0"
     inkscape:pageshadow="2"
     inkscape:zoom="0.5"
     inkscape:cx="184.54501"
     inkscape:cy="340.43661"
     inkscape:document-units="mm"
     inkscape:current-layer="layer1"
     showgrid="false"
     inkscape:window-width="1366"
     inkscape:window-height="705"
     inkscape:window-x="-8"
     inkscape:window-y="-8"
     inkscape:window-maximized="1" />
  <defs
     id="defs2">
    <filter
       inkscape:label="3D Marble"
       inkscape:menu="Materials"
       inkscape:menu-tooltip="3D warped marble texture"
       height="1.5"
       y="-0.25"
       width="1.5"
       x="-0.25"
       style="color-interpolation-filters:sRGB"
       id="filter4566">
      <feGaussianBlur
         stdDeviation="4"
         result="result8"
         id="feGaussianBlur4538" />
      <feTurbulence
         seed="50"
         result="result7"
         type="turbulence"
         numOctaves="7"
         baseFrequency="0.01 0.01"
         id="feTurbulence4540" />
      <feColorMatrix
         result="result5"
         values="1 0 0 0 0 0 1 0 0 0 0 0 1 0 0 0 0 0 1.4 0 "
         id="feColorMatrix4542" />
      <feComposite
         result="result6"
         in="result5"
         operator="in"
         in2="result8"
         id="feComposite4544" />
      <feDisplacementMap
         in="result5"
         xChannelSelector="A"
         yChannelSelector="A"
         scale="100"
         result="result4"
         in2="result6"
         id="feDisplacementMap4546" />
      <feFlood
         flood-opacity="1"
         flood-color="rgb(224,224,224)"
         id="feFlood4548" />
      <feComposite
         result="result2"
         operator="atop"
         in2="result4"
         id="feComposite4550" />
      <feComposite
         in="result2"
         operator="atop"
         in2="SourceGraphic"
         result="result9"
         id="feComposite4552" />
      <feBlend
         result="fbSourceGraphic"
         mode="darken"
         in2="result9"
         id="feBlend4554" />
      <feGaussianBlur
         stdDeviation="5"
         in="fbSourceGraphic"
         result="result0"
         id="feGaussianBlur4556" />
      <feSpecularLighting
         in="result0"
         result="result1"
         lighting-color="#ffffff"
         surfaceScale="8"
         specularConstant="0.80000001"
         specularExponent="30"
         id="feSpecularLighting4560">
        <feDistantLight
           elevation="55"
           azimuth="235"
           id="feDistantLight4558" />
      </feSpecularLighting>
      <feComposite
         in2="fbSourceGraphic"
         in="result1"
         result="result2"
         operator="in"
         id="feComposite4562" />
      <feComposite
         in="fbSourceGraphic"
         result="result4"
         operator="arithmetic"
         k2="1"
         k3="1"
         in2="result2"
         id="feComposite4564"
         k1="0"
         k4="0" />
    </filter>
  </defs>
  <metadata
     id="metadata5">
    <rdf:RDF>
      <cc:Work
         rdf:about="">
        <dc:format>image/svg+xml</dc:format>
        <dc:type
           rdf:resource="http://purl.org/dc/dcmitype/StillImage" />
        <dc:title />
      </cc:Work>
    </rdf:RDF>
  </metadata>
  <g
     style="display:inline;opacity:1"
     id="layer1"
     inkscape:groupmode="layer"
     inkscape:label="Layer 1"
     transform="translate(-79.712458,135.88064)">
    <path
       style="display:inline;opacity:1;fill:#0068e0;fill-opacity:1;fill-rule:evenodd;stroke:#203e3a;stroke-width:0.64911008;stroke-miterlimit:4;stroke-dasharray:0, 7.14021226;stroke-dashoffset:0;stroke-opacity:0.62311557;paint-order:markers stroke fill"
       d="m 182.4811,-33.136495 c -0.66459,0.310966 -1.36276,0.26929 -1.84194,-0.102586 -5.41897,-4.233615 -13.23737,-8.817402 -20.43172,-11.978699 l -4.14931,-1.823154 -4.54711,1.951387 c -6.11365,2.623327 -12.12357,5.784562 -17.01163,8.948456 l -4.04193,2.616274 -2.24353,-1.751663 -2.24351,-1.751663 4.01969,-0.243643 c 8.22586,-0.495621 13.12911,-5.591796 11.54961,-12.004314 -0.8046,-3.267539 -2.68531,-5.307791 -6.38903,-6.931222 -3.5027,-1.53527 -7.62343,-1.627277 -11.64427,-0.259672 l -2.46536,0.838644 1.16362,-2.19535 c 0.63999,-1.207313 2.04012,-2.906722 3.11198,-3.776239 5.11346,-4.148724 1.64894,-9.050722 -13.06724,-18.488675 -3.86691,-2.480028 -7.31662,-4.772963 -7.66638,-5.095629 -1.19246,-1.09992 9.53934,2.99905 15.8353,6.048785 7.4203,3.593988 14.7191,8.063648 15.6939,9.610716 0.74405,1.181347 2.00275,1.484939 2.9819,0.720028 2.34995,-1.835656 -16.70616,-17.646728 -29.9802,-24.874521 -9.355056,-5.093995 -14.709936,-5.945366 -18.545773,-2.94872 -3.439779,2.686804 -4.297359,9.419841 -2.345691,18.413723 1.442702,6.648468 1.627179,6.967865 5.473706,9.46873 2.51078,1.632727 2.726476,1.986331 2.19622,3.611235 -0.321655,0.9906 -1.187748,2.31621 -1.921397,2.945193 -1.219912,1.046382 -1.514128,1.080044 -3.43978,0.393034 -2.707076,-0.964953 -6.560084,-3.559333 -9.046025,-6.090525 -1.852334,-1.885988 -1.872202,-2.138606 -0.373683,-4.769276 1.626706,-2.856071 1.800775,-4.130708 1.662181,-12.138158 -0.146635,-8.615306 1.618665,-14.903663 5.002912,-17.794131 2.444552,-2.08795 5.158298,-1.71383 13.57886,1.87091 13.42034,5.713754 35.72039,19.902742 42.24325,26.877723 1.15984,1.240335 2.30454,2.238629 2.54342,2.218433 0.24123,-0.01994 0.34057,-1.580793 0.22704,-3.468769 -0.41152,-6.847453 2.89297,-13.099681 8.28357,-15.660975 1.58319,-0.752729 1.61393,-0.59372 0.58891,3.06541 -1.17782,4.205949 -1.60306,10.003141 -0.88265,12.03227 l 0.45409,1.281368 3.18247,-2.933651 c 7.68941,-7.087699 10.52458,-15.065815 7.5307,-21.19122 l -0.7625,-1.559949 1.49332,1.000533 c 2.87925,1.930548 4.22262,3.963491 5.09615,7.71107 0.68728,2.949681 0.48436,5.092616 -0.9224,9.749784 -0.99191,3.283024 -1.60446,6.057442 -1.36133,6.16535 1.04158,0.462601 1.87219,-1.247387 4.05233,-8.346273 6.98528,-22.741754 16.37396,-41.987674 23.79034,-48.767834 2.75013,-2.51433 3.26382,-2.8035 5.27305,-2.97244 1.66171,-0.13785 2.5647,0.0513 3.56088,0.74599 2.21609,1.54873 4.4246,4.72071 6.26558,8.9992 2.59829,6.03841 5.38923,8.86142 11.90528,12.04179 l 5.30928,2.59128 -1.06856,2.30018 c -1.78989,3.85247 -3.62519,6.04071 -5.49479,6.5511 -2.31116,0.63123 -3.06278,-0.10259 -7.40376,-7.24062 -10.69378,-17.58055 -11.43126,-18.52544 -14.27286,-18.28686 -1.49189,0.12502 -1.88639,0.44978 -4.44967,3.66468 -1.62623,2.03954 -3.17441,4.85279 -3.66919,6.66907 -0.47302,1.72794 -2.19007,5.9657 -3.82056,9.41731 -8.91708,18.877 -11.63608,30.82159 -9.14929,40.191645 0.53025,1.99755 2.24589,3.456714 3.90145,3.317774 3.82718,-0.321224 10.25921,-10.829667 10.56828,-17.265429 0.10407,-2.194708 0.7715,-1.869317 1.57042,0.767154 1.91714,6.321794 0.5558,14.635272 -3.19522,19.514957 -1.4077,1.831168 -1.42521,2.298258 -0.14191,3.926785 0.80034,1.016567 1.78233,2.695779 2.18202,3.731421 l 0.72703,1.883424 -3.15881,-1.707423 c -5.29954,-2.864406 -10.84897,-2.730724 -15.55777,0.375403 -4.79719,3.16447 -5.61991,9.648479 -1.76009,13.870425 2.23122,2.439954 4.51495,3.575042 7.83624,3.892867 1.29749,0.121821 2.46204,0.26929 2.58788,0.326032 0.29326,0.128234 -1.57704,1.44647 -2.97623,2.099817 z"
       id="path6914"
       inkscape:connector-curvature="0"
       inkscape:export-xdpi="96"
       inkscape:export-ydpi="96" />
    <path
       style="display:inline;opacity:1;fill:#0068e0;fill-opacity:1;fill-rule:evenodd;stroke:#203e3a;stroke-width:0.64911008;stroke-miterlimit:4;stroke-dasharray:0, 7.14021226;stroke-dashoffset:0;stroke-opacity:0.62311557;paint-order:markers stroke fill"
       d="M 146.08556,55.963814 C 127.693,46.915272 116.37655,37.609879 109.01938,25.484417 c -3.02779,-4.990221 -6.42821,-17.7016766 -6.2547,-23.3815678 0.23178,-7.7174826 1.49284,-13.9350872 4.22734,-20.9104852 1.41386,-3.606202 5.90037,-12.19195 6.69603,-12.813529 0.18921,-0.147467 1.74118,-0.128233 3.44404,0.04168 1.70287,0.173115 4.97056,0.137851 7.26091,-0.07694 4.38629,-0.408101 5.43724,-0.298141 4.45913,0.465807 -0.91056,0.711373 -3.20375,9.010777 -3.68858,13.349447 -2.20521,19.7250341 4.40899,46.70713 15.46032,63.069765 2.47435,3.663395 9.05959,11.526133 9.99802,11.937537 0.33111,0.144263 0.56856,0.485683 0.52694,0.756254 -0.0472,0.310966 -1.91099,-0.410666 -5.06289,-1.961324 z"
       id="path6916"
       inkscape:connector-curvature="0"
       inkscape:export-xdpi="96"
       inkscape:export-ydpi="96" />
    <path
       style="display:inline;opacity:1;fill:#0068e0;fill-opacity:1;fill-rule:evenodd;stroke:#203e3a;stroke-width:0.64911008;stroke-miterlimit:4;stroke-dasharray:0, 7.14021226;stroke-dashoffset:0;stroke-opacity:0.62311557;paint-order:markers stroke fill"
       d="m 183.61823,45.390485 c -5.49087,3.925502 -20.68986,12.127513 -22.80217,12.30486 -0.53829,0.04488 0.71095,-1.490069 3.47762,-4.272886 2.48902,-2.50375 6.98397,-8.680513 9.59516,-13.185437 12.08847,-20.855088 16.84579,-53.581929 10.04769,-69.120634 l -1.11538,-2.549595 3.56797,0.405858 c 1.96255,0.224408 5.14226,0.37957 7.06616,0.347512 1.92376,-0.03149 3.68811,0.02494 3.92037,0.125027 0.51937,0.227614 4.34466,7.225388 5.95239,10.88859 1.74119,3.967595 4.69375,16.8081807 4.75832,20.6925846 0.29327,17.7584204 -7.81022,32.4528074 -24.46818,44.3621644 z"
       id="path6918"
       inkscape:connector-curvature="0"
       inkscape:export-xdpi="96"
       inkscape:export-ydpi="96" />
    <path
       style="display:inline;opacity:1;fill:#ffffff;fill-opacity:1;fill-rule:evenodd;stroke:#203e3a;stroke-width:0.64911008;stroke-miterlimit:4;stroke-dasharray:0, 7.14021226;stroke-dashoffset:0;stroke-opacity:0.62311557;paint-order:markers stroke fill"
       d="M 152.85198,57.364343 C 142.33718,47.71987 134.19902,32.988969 129.96022,15.92756 c -4.28884,-17.2632805 -4.54711,-34.503607 -0.65985,-44.061875 1.17591,-2.891656 1.78374,-3.611877 5.25706,-6.229787 4.21316,-3.175371 13.3457,-8.152225 18.49212,-10.077162 l 3.15881,-1.181348 5.77762,2.673018 c 6.13044,2.835875 13.04618,6.906729 16.86551,9.927099 7.90942,6.254599 8.59037,31.232028 1.47157,53.972527 -4.76504,15.221265 -11.5437,26.435471 -22.0461,36.471824 l -2.62619,2.509521 z"
       id="path6920"
       inkscape:connector-curvature="0"
       inkscape:export-xdpi="96"
       inkscape:export-ydpi="96" />
    <path
       style="display:inline;opacity:1;fill:#00a0f0;fill-opacity:1;fill-rule:evenodd;stroke:#203e3a;stroke-width:0.64911008;stroke-miterlimit:4;stroke-dasharray:0, 7.14021226;stroke-dashoffset:0;stroke-opacity:0.62311557;paint-order:markers stroke fill"
       d="m 197.35631,50.330343 c -8.72145,5.19097 -20.9918,9.65643 -33.88823,12.332591 -8.14251,1.689791 -8.8456,1.64555 -19.9519,-1.256364 C 103.83942,51.039439 85.113147,28.786995 89.335958,-2.975629 c 1.251603,-9.414904 7.439563,-22.887678 12.907832,-28.1042 2.95163,-2.815998 3.42417,-2.914096 7.86485,-1.63946 l 2.10209,0.603338 -2.29555,3.734916 c -7.5415,12.270076 -10.618521,28.3086667 -7.76032,40.450061 4.0074,17.022459 15.89096,30.383254 37.14532,41.762015 3.47053,1.857777 8.50508,4.262949 11.18865,5.344786 l 4.87922,1.967096 6.08579,-2.472655 c 10.48158,-4.258491 17.99909,-8.527338 26.08082,-14.810021 7.40939,-5.760228 11.01373,-9.539642 14.91864,-15.644722 3.27847,-5.125379 6.41666,-13.66086 7.11223,-19.3435409 1.30364,-10.6485057 -2.16925,-25.6270581 -8.42542,-36.3448411 l -2.06142,-3.531442 2.98758,-0.602054 c 1.64326,-0.331162 3.18151,-0.754011 3.4185,-0.938987 0.77905,-0.608466 4.20323,2.002359 6.55133,4.99471 5.42797,6.917757 9.83805,18.6321359 10.8871,28.9187037 1.35378,13.2735333 -2.53205,26.6366043 -10.54237,36.2562003 -3.27469,3.932363 -10.38059,9.941813 -15.02415,12.705685 z"
       id="path6922"
       inkscape:connector-curvature="0"
       inkscape:export-xdpi="96"
       inkscape:export-ydpi="96" />
    <path
       style="display:inline;opacity:1;fill:#ffffff;fill-opacity:1;fill-rule:evenodd;stroke:#203e3a;stroke-width:0.64911008;stroke-miterlimit:4;stroke-dasharray:0, 7.14021226;stroke-dashoffset:0;stroke-opacity:0.62311557;paint-order:markers stroke fill"
       d="m 131.84694,-38.71989 c -1.62859,0.325712 -3.54999,0.424451 -4.27087,0.221202 -1.13713,-0.323789 -1.11017,-0.401049 0.2034,-0.585064 2.31163,-0.324108 5.22116,-3.45229 5.74962,-6.18141 0.26961,-1.396779 -0.12299,-3.224068 -0.98057,-4.545125 -2.24068,-3.45492 -6.14174,-4.676628 -10.40136,-3.257376 l -2.22412,0.741186 1.41006,-1.129732 c 1.85517,-1.486863 6.5327,-3.13017 8.42741,-2.960581 2.67396,0.240436 7.12104,2.515291 8.34856,4.273623 2.78702,3.992088 2.42942,7.433382 -1.11915,10.775841 -1.84619,1.739161 -2.64275,2.148865 -5.14506,2.649616 z"
       id="path6924"
       inkscape:connector-curvature="0"
       inkscape:export-xdpi="96"
       inkscape:export-ydpi="96" />
    <path
       style="display:inline;opacity:1;fill:#ffffff;fill-opacity:1;fill-rule:evenodd;stroke:#203e3a;stroke-width:0.64911008;stroke-miterlimit:4;stroke-dasharray:0, 7.14021226;stroke-dashoffset:0;stroke-opacity:0.62311557;paint-order:markers stroke fill"
       d="m 183.60319,-36.627639 c -4.40095,-0.739585 -7.15386,-2.786826 -8.80001,-6.544086 -1.07233,-2.448931 0.30746,-6.817672 2.75769,-8.732096 2.09452,-1.636574 5.84957,-2.921469 7.98008,-2.731043 2.19007,0.195556 6.10982,1.93151 7.57504,3.353679 l 1.16031,1.126849 -2.40908,-0.634433 c -1.32492,-0.349115 -3.59399,-0.481516 -5.0424,-0.29173 -2.23122,0.288523 -2.88163,0.602374 -4.25906,2.054614 -1.81023,1.908428 -2.6399,5.012245 -1.9474,7.283445 0.25069,0.821974 1.50655,2.389944 2.7908,3.485311 l 2.33575,1.991459 z"
       id="path6926"
       inkscape:connector-curvature="0"
       inkscape:export-xdpi="96"
       inkscape:export-ydpi="96" />
    <path
       style="display:inline;opacity:1;fill:#ffffff;fill-opacity:1;fill-rule:evenodd;stroke:#203e3a;stroke-width:0.64911008;stroke-miterlimit:4;stroke-dasharray:0, 7.14021226;stroke-dashoffset:0;stroke-opacity:0.62311557;paint-order:markers stroke fill"
       d="m 122.74032,-41.267176 c -3.22549,-0.535694 -3.36504,-4.055179 -0.17501,-4.501974 1.89917,-0.266084 2.96629,0.288524 3.32011,1.732429 0.35476,1.444224 -1.46494,3.047778 -3.14131,2.769192 z"
       id="path6928"
       inkscape:connector-curvature="0"
       inkscape:export-xdpi="96"
       inkscape:export-ydpi="96" />
    <path
       style="display:inline;opacity:1;fill:#ffffff;fill-opacity:1;fill-rule:evenodd;stroke:#203e3a;stroke-width:0.64911008;stroke-miterlimit:4;stroke-dasharray:0, 7.14021226;stroke-dashoffset:0;stroke-opacity:0.62311557;paint-order:markers stroke fill"
       d="m 190.81764,-38.817604 c -2.25062,0.06732 -3.32058,-2.428734 -1.61393,-3.762454 1.05861,-0.826783 1.58224,-0.900196 2.99089,-0.419643 2.90858,0.991883 1.88923,4.087044 -1.37743,4.182417 z"
       id="path6930"
       inkscape:connector-curvature="0"
       inkscape:export-xdpi="96"
       inkscape:export-ydpi="96" />
    <path
       style="display:inline;opacity:1;fill:#000000;fill-opacity:1;fill-rule:evenodd;stroke:#203e3a;stroke-width:0.64911008;stroke-miterlimit:4;stroke-dasharray:0, 7.14021226;stroke-dashoffset:0;stroke-opacity:0.62311557;paint-order:markers stroke fill"
       d="m 126.27338,-39.338454 c -1.98667,0.310964 -2.23737,0.444968 -1.4654,0.783504 0.51227,0.224407 0.75872,0.543387 0.54728,0.708167 -0.48958,0.382455 -3.76758,-1.709988 -5.59655,-3.573535 -1.65273,-1.6837 -3.02211,-6.204333 -2.0704,-6.832964 0.36423,-0.240436 1.19154,-1.116269 1.83909,-1.946577 3.98139,-5.104125 11.90594,-3.446392 13.20328,2.76214 0.80602,3.856417 -2.02356,7.405139 -6.4581,8.099233 z m 0.23651,-4.924599 c -1.04726,-2.291525 -3.98895,-2.925958 -6.06048,-1.307977 -1.36371,1.065296 -1.08415,3.54744 0.47585,4.231403 3.04056,1.332982 6.66331,-0.563906 5.58463,-2.923394 z"
       id="path6932"
       inkscape:connector-curvature="0"
       inkscape:export-xdpi="96"
       inkscape:export-ydpi="96" />
    <path
       style="display:inline;opacity:1;fill:#000000;fill-opacity:1;fill-rule:evenodd;stroke:#203e3a;stroke-width:0.64911008;stroke-miterlimit:4;stroke-dasharray:0, 7.14021226;stroke-dashoffset:0;stroke-opacity:0.62311557;paint-order:markers stroke fill"
       d="m 190.48407,-36.760521 c -1.58413,0.57769 -2.03823,0.511008 -4.56319,-0.67098 -3.28416,-1.537194 -4.78835,-3.679583 -4.6876,-6.677544 0.2034,-6.163907 7.61174,-8.973013 12.26983,-4.654828 0.96921,0.898273 1.84239,2.141172 1.94126,2.76214 0.0993,0.620648 0.50187,1.145441 0.89636,1.16628 1.19058,0.06411 -0.31692,3.850197 -2.27047,5.701755 -1.00469,0.952771 -2.61816,2.021273 -3.58595,2.373594 z m 4.03814,-3.958362 c 0.4541,-1.219497 -0.73553,-2.473296 -2.95398,-3.109653 -0.87793,-0.253259 -1.75631,-0.01331 -3.02636,0.823578 -1.45265,0.956938 -1.66597,1.447431 -1.13477,2.609543 0.78095,1.708064 1.63616,2.148865 3.8144,1.966133 1.94363,-0.163497 2.70235,-0.689252 3.30071,-2.289601 z"
       id="path6934"
       inkscape:connector-curvature="0"
       inkscape:export-xdpi="96"
       inkscape:export-ydpi="96" />
  </g>
</svg>
